<?xml version="1.0" encoding="UTF-8" standalone="no"?>
<!-- Created with Inkscape (http://www.inkscape.org/) -->

<svg
   width="3600"
   height="1032"
   viewBox="0 0 3600 1032"
   version="1.1"
   id="svg1"
   inkscape:version="1.4.2 (2aeb623e1d, 2025-05-12)"
   sodipodi:docname="wordmark.svg"
   xmlns:inkscape="http://www.inkscape.org/namespaces/inkscape"
   xmlns:sodipodi="http://sodipodi.sourceforge.net/DTD/sodipodi-0.dtd"
   xmlns="http://www.w3.org/2000/svg"
   xmlns:svg="http://www.w3.org/2000/svg"
   xmlns:rdf="http://www.w3.org/1999/02/22-rdf-syntax-ns#"
   xmlns:cc="http://creativecommons.org/ns#"
   xmlns:dc="http://purl.org/dc/elements/1.1/">
  <sodipodi:namedview
     id="namedview1"
     pagecolor="#ffffff"
     bordercolor="#000000"
     borderopacity="0.25"
     inkscape:showpageshadow="2"
     inkscape:pageopacity="0.0"
     inkscape:pagecheckerboard="0"
     inkscape:deskcolor="#d1d1d1"
     inkscape:document-units="px"
     inkscape:zoom="0.28"
     inkscape:cx="1798.2143"
     inkscape:cy="516.07143"
     inkscape:window-width="1920"
     inkscape:window-height="1011"
     inkscape:window-x="0"
     inkscape:window-y="0"
     inkscape:window-maximized="1"
     inkscape:current-layer="svg1"
     showgrid="true"
     showguides="true" />
  <defs
     id="defs1" />
  <g
     id="g5"
     inkscape:label="Alternative 2"
     style="display:inline"
     sodipodi:insensitive="true">
    <rect
       style="fill:#0f1118;fill-opacity:1;stroke-width:3.96788"
       id="rect1-5-9"
       width="3600"
       height="1032"
       x="0"
       y="0"
       inkscape:label="Background" />
    <path
       d="m 512.18706,773.86968 c -35.84234,0 -69.2952,-6.68888 -100.35856,-20.06666 -31.06336,-13.37777 -58.30354,-31.7722 -81.72054,-55.18329 -23.41699,-23.88888 -41.81606,-51.36108 -55.1972,-82.41662 -12.90325,-31.53331 -19.35487,-65.21663 -19.35487,-101.04994 0,-35.83331 6.45162,-69.27773 19.35487,-100.33327 13.38114,-31.05553 31.54126,-58.28885 54.48036,-81.69994 23.41699,-23.88888 50.41822,-42.28331 81.00369,-55.1833 31.06336,-13.37777 64.51621,-20.06666 100.35855,-20.06666 35.84234,0 69.05625,6.68889 99.64171,20.06666 31.06337,12.89999 58.30354,31.29442 81.72054,55.1833 23.417,23.41109 41.57712,50.8833 54.48036,82.4166 13.38114,31.05555 20.07171,64.49996 20.07171,100.33328 0,35.83331 -6.69057,69.51662 -20.07171,101.04994 -12.90324,31.05553 -31.06336,58.28885 -54.48036,81.69995 -22.9391,23.41109 -49.94033,41.80552 -81.00369,55.18329 -30.58547,13.37778 -63.56042,20.06666 -98.92486,20.06666 z M 741.57804,801.103 515.77129,575.35314 568.81796,522.31984 794.62471,748.0697 Z M 510.75336,695.03639 c 33.93075,0 63.56042,-7.64443 88.88901,-22.93331 25.80649,-15.28888 45.8782,-36.31109 60.21513,-63.06664 14.81484,-27.23331 22.22226,-58.52774 22.22226,-93.88327 0,-26.27776 -4.30109,-50.16664 -12.90325,-71.66662 -8.12426,-21.97777 -19.83276,-40.84998 -35.12549,-56.61663 -15.29273,-16.24443 -33.45285,-28.66664 -54.48036,-37.26663 -20.54961,-8.6 -43.48871,-12.9 -68.8173,-12.9 -33.45285,0 -63.08252,7.64444 -88.889,22.93332 -25.32859,14.8111 -45.4003,35.59442 -60.21514,62.34995 -14.33693,26.75554 -21.5054,57.81107 -21.5054,93.16661 0,26.27777 4.06213,50.64441 12.18639,73.09996 8.60217,21.97776 20.31066,40.84997 35.1255,56.61663 15.29273,15.76665 33.45285,28.18887 54.48036,37.26664 21.0275,8.59999 43.9666,12.89999 68.81729,12.89999 z m 587.09724,78.83329 c -37.754,0 -71.6847,-8.59999 -101.79226,-25.79998 -30.10757,-17.19999 -54.00246,-40.61109 -71.68468,-70.2333 -17.20433,-30.09998 -25.80649,-64.02218 -25.80649,-101.76659 V 265.03667 h 82.43739 v 310.31647 c 0,24.36665 5.01793,45.62775 15.05378,63.78329 10.51376,17.67777 24.61176,31.53332 42.29396,41.56664 17.6822,9.55555 37.515,14.33332 59.4983,14.33332 22.4612,0 42.294,-4.77777 59.4983,-14.33332 17.2043,-10.03332 30.8244,-23.88887 40.8603,-41.56664 10.0358,-18.15554 15.0537,-39.17776 15.0537,-63.06662 V 265.03667 h 82.4374 v 311.74979 c 0,37.74443 -8.6021,71.42774 -25.8065,101.04994 -17.2043,29.62221 -40.6213,53.03331 -70.251,70.2333 -29.6296,17.19999 -63.5604,25.79998 -101.7922,25.79998 z m 289.6051,-7.16666 206.4519,-501.66635 h 57.3477 l 205.0182,501.66635 h -88.889 L 1606.8108,360.35328 h 30.1076 L 1474.911,766.70302 Z m 101.7922,-96.74994 v -71.66663 h 265.9502 v 71.66663 z m 531.8993,96.74994 V 279.36999 h 82.4374 v 487.33303 z m -163.4411,-426.4164 v -75.24995 h 409.3195 v 75.24995 z m 580.6456,213.56653 v -68.08329 h 126.8819 c 25.3286,0 44.9224,-6.45 58.7815,-19.34999 14.3369,-13.37777 21.5054,-31.77221 21.5054,-55.1833 0,-21.0222 -6.9295,-38.69997 -20.7886,-53.03329 -13.859,-14.33333 -33.4528,-21.49999 -58.7814,-21.49999 h -127.5988 v -71.66662 h 131.183 c 31.5413,0 59.2594,6.44999 83.1542,19.34999 23.8949,12.42221 42.294,29.6222 55.1973,51.59996 13.3811,21.49999 20.0717,46.10554 20.0717,73.81662 0,29.14442 -6.6906,54.46663 -20.0717,75.96662 -12.9033,21.49999 -31.3024,38.2222 -55.1973,50.16663 -23.8948,11.94444 -51.6129,17.91666 -83.1542,17.91666 z m -56.6309,212.84987 V 265.03667 h 82.4374 v 501.66635 z m 275.2692,0 -175.6274,-217.86654 76.7026,-27.94998 202.8676,245.81652 z m 432.9733,7.16666 c -35.8424,0 -69.2952,-6.68888 -100.3586,-20.06666 -31.0633,-13.37777 -58.3035,-31.7722 -81.7205,-55.18329 -23.417,-23.88888 -41.8161,-51.36108 -55.1972,-82.41662 -12.9033,-31.53331 -19.3549,-65.21663 -19.3549,-101.04994 0,-35.83331 6.4516,-69.27773 19.3549,-100.33327 13.3811,-31.05553 31.5412,-58.28885 54.4803,-81.69994 23.417,-23.88888 50.4183,-42.28331 81.0037,-55.1833 31.0634,-13.37777 64.5162,-20.06666 100.3586,-20.06666 35.8423,0 69.0562,6.68889 99.6417,20.06666 31.0634,12.89999 58.3035,31.29442 81.7205,55.1833 23.417,23.41109 41.5771,50.8833 54.4804,82.4166 13.3811,31.05555 20.0717,64.49996 20.0717,100.33328 0,35.83331 -6.6906,69.51662 -20.0717,101.04994 -12.9033,31.05553 -31.0634,58.28885 -54.4804,81.69995 -22.9391,23.41109 -49.9403,41.80552 -81.0037,55.18329 -30.5854,13.37778 -63.5604,20.06666 -98.9248,20.06666 z m -1.4337,-78.83329 c 33.9307,0 63.5604,-7.64443 88.889,-22.93331 25.8065,-15.28888 45.8782,-36.31109 60.2151,-63.06664 14.8149,-27.23331 22.2223,-58.52774 22.2223,-93.88327 0,-26.27776 -4.3011,-50.16664 -12.9033,-71.66662 -8.1242,-21.97777 -19.8327,-40.84998 -35.1255,-56.61663 -15.2927,-16.24443 -33.4528,-28.66664 -54.4803,-37.26663 -20.5496,-8.6 -43.4887,-12.9 -68.8173,-12.9 -33.4529,0 -63.0825,7.64444 -88.889,22.93332 -25.3286,14.8111 -45.4003,35.59442 -60.2152,62.34995 -14.3369,26.75554 -21.5054,57.81107 -21.5054,93.16661 0,26.27777 4.0622,50.64441 12.1864,73.09996 8.6022,21.97776 20.3107,40.84997 35.1255,56.61663 15.2928,15.76665 33.4529,28.18887 54.4804,37.26664 21.0275,8.59999 43.9666,12.89999 68.8173,12.89999 z"
       id="text5-0-5-4"
       style="font-weight:500;font-size:768px;font-family:Outfit;-inkscape-font-specification:'Outfit Medium';letter-spacing:46.08px;display:inline;fill:#e2e4ea;fill-opacity:1;stroke-width:0.934742"
       inkscape:label="Wordmark"
       aria-label="QUATRO"
       sodipodi:nodetypes="ssccscccscccscccscccccsccscccsccscccssscsccsccsccsccssssccccccccccccccccccccccccccscsssccsccscsscccccccccccssccscccscccscccssccscccsccscccs" />
  </g>
  <g
     id="g1"
     inkscape:label="Alternative 1"
     style="display:inline"
     sodipodi:insensitive="true">
    <rect
       style="display:inline;fill:#e2e4ea;fill-opacity:1;stroke-width:3.96788"
       id="rect1-5"
       width="3600"
       height="1032"
       x="0"
       y="0"
       inkscape:label="Background" />
    <path
       d="m 512.18706,773.86968 c -35.84234,0 -69.2952,-6.68888 -100.35856,-20.06666 -31.06336,-13.37777 -58.30354,-31.7722 -81.72054,-55.18329 -23.41699,-23.88888 -41.81606,-51.36108 -55.1972,-82.41662 -12.90325,-31.53331 -19.35487,-65.21663 -19.35487,-101.04994 0,-35.83331 6.45162,-69.27773 19.35487,-100.33327 13.38114,-31.05553 31.54126,-58.28885 54.48036,-81.69994 23.41699,-23.88888 50.41822,-42.28331 81.00369,-55.1833 31.06336,-13.37777 64.51621,-20.06666 100.35855,-20.06666 35.84234,0 69.05625,6.68889 99.64171,20.06666 31.06337,12.89999 58.30354,31.29442 81.72054,55.1833 23.417,23.41109 41.57712,50.8833 54.48036,82.4166 13.38114,31.05555 20.07171,64.49996 20.07171,100.33328 0,35.83331 -6.69057,69.51662 -20.07171,101.04994 -12.90324,31.05553 -31.06336,58.28885 -54.48036,81.69995 -22.9391,23.41109 -49.94033,41.80552 -81.00369,55.18329 -30.58547,13.37778 -63.56042,20.06666 -98.92486,20.06666 z M 741.57804,801.103 515.77129,575.35314 568.81796,522.31984 794.62471,748.0697 Z M 510.75336,695.03639 c 33.93075,0 63.56042,-7.64443 88.88901,-22.93331 25.80649,-15.28888 45.8782,-36.31109 60.21513,-63.06664 14.81484,-27.23331 22.22226,-58.52774 22.22226,-93.88327 0,-26.27776 -4.30109,-50.16664 -12.90325,-71.66662 -8.12426,-21.97777 -19.83276,-40.84998 -35.12549,-56.61663 -15.29273,-16.24443 -33.45285,-28.66664 -54.48036,-37.26663 -20.54961,-8.6 -43.48871,-12.9 -68.8173,-12.9 -33.45285,0 -63.08252,7.64444 -88.889,22.93332 -25.32859,14.8111 -45.4003,35.59442 -60.21514,62.34995 -14.33693,26.75554 -21.5054,57.81107 -21.5054,93.16661 0,26.27777 4.06213,50.64441 12.18639,73.09996 8.60217,21.97776 20.31066,40.84997 35.1255,56.61663 15.29273,15.76665 33.45285,28.18887 54.48036,37.26664 21.0275,8.59999 43.9666,12.89999 68.81729,12.89999 z m 587.09724,78.83329 c -37.754,0 -71.6847,-8.59999 -101.79226,-25.79998 -30.10757,-17.19999 -54.00246,-40.61109 -71.68468,-70.2333 -17.20433,-30.09998 -25.80649,-64.02218 -25.80649,-101.76659 V 265.03667 h 82.43739 v 310.31647 c 0,24.36665 5.01793,45.62775 15.05378,63.78329 10.51376,17.67777 24.61176,31.53332 42.29396,41.56664 17.6822,9.55555 37.515,14.33332 59.4983,14.33332 22.4612,0 42.294,-4.77777 59.4983,-14.33332 17.2043,-10.03332 30.8244,-23.88887 40.8603,-41.56664 10.0358,-18.15554 15.0537,-39.17776 15.0537,-63.06662 V 265.03667 h 82.4374 v 311.74979 c 0,37.74443 -8.6021,71.42774 -25.8065,101.04994 -17.2043,29.62221 -40.6213,53.03331 -70.251,70.2333 -29.6296,17.19999 -63.5604,25.79998 -101.7922,25.79998 z m 289.6051,-7.16666 206.4519,-501.66635 h 57.3477 l 205.0182,501.66635 h -88.889 L 1606.8108,360.35328 h 30.1076 L 1474.911,766.70302 Z m 101.7922,-96.74994 v -71.66663 h 265.9502 v 71.66663 z m 531.8993,96.74994 V 279.36999 h 82.4374 v 487.33303 z m -163.4411,-426.4164 v -75.24995 h 409.3195 v 75.24995 z m 580.6456,213.56653 v -68.08329 h 126.8819 c 25.3286,0 44.9224,-6.45 58.7815,-19.34999 14.3369,-13.37777 21.5054,-31.77221 21.5054,-55.1833 0,-21.0222 -6.9295,-38.69997 -20.7886,-53.03329 -13.859,-14.33333 -33.4528,-21.49999 -58.7814,-21.49999 h -127.5988 v -71.66662 h 131.183 c 31.5413,0 59.2594,6.44999 83.1542,19.34999 23.8949,12.42221 42.294,29.6222 55.1973,51.59996 13.3811,21.49999 20.0717,46.10554 20.0717,73.81662 0,29.14442 -6.6906,54.46663 -20.0717,75.96662 -12.9033,21.49999 -31.3024,38.2222 -55.1973,50.16663 -23.8948,11.94444 -51.6129,17.91666 -83.1542,17.91666 z m -56.6309,212.84987 V 265.03667 h 82.4374 v 501.66635 z m 275.2692,0 -175.6274,-217.86654 76.7026,-27.94998 202.8676,245.81652 z m 432.9733,7.16666 c -35.8424,0 -69.2952,-6.68888 -100.3586,-20.06666 -31.0633,-13.37777 -58.3035,-31.7722 -81.7205,-55.18329 -23.417,-23.88888 -41.8161,-51.36108 -55.1972,-82.41662 -12.9033,-31.53331 -19.3549,-65.21663 -19.3549,-101.04994 0,-35.83331 6.4516,-69.27773 19.3549,-100.33327 13.3811,-31.05553 31.5412,-58.28885 54.4803,-81.69994 23.417,-23.88888 50.4183,-42.28331 81.0037,-55.1833 31.0634,-13.37777 64.5162,-20.06666 100.3586,-20.06666 35.8423,0 69.0562,6.68889 99.6417,20.06666 31.0634,12.89999 58.3035,31.29442 81.7205,55.1833 23.417,23.41109 41.5771,50.8833 54.4804,82.4166 13.3811,31.05555 20.0717,64.49996 20.0717,100.33328 0,35.83331 -6.6906,69.51662 -20.0717,101.04994 -12.9033,31.05553 -31.0634,58.28885 -54.4804,81.69995 -22.9391,23.41109 -49.9403,41.80552 -81.0037,55.18329 -30.5854,13.37778 -63.5604,20.06666 -98.9248,20.06666 z m -1.4337,-78.83329 c 33.9307,0 63.5604,-7.64443 88.889,-22.93331 25.8065,-15.28888 45.8782,-36.31109 60.2151,-63.06664 14.8149,-27.23331 22.2223,-58.52774 22.2223,-93.88327 0,-26.27776 -4.3011,-50.16664 -12.9033,-71.66662 -8.1242,-21.97777 -19.8327,-40.84998 -35.1255,-56.61663 -15.2927,-16.24443 -33.4528,-28.66664 -54.4803,-37.26663 -20.5496,-8.6 -43.4887,-12.9 -68.8173,-12.9 -33.4529,0 -63.0825,7.64444 -88.889,22.93332 -25.3286,14.8111 -45.4003,35.59442 -60.2152,62.34995 -14.3369,26.75554 -21.5054,57.81107 -21.5054,93.16661 0,26.27777 4.0622,50.64441 12.1864,73.09996 8.6022,21.97776 20.3107,40.84997 35.1255,56.61663 15.2928,15.76665 33.4529,28.18887 54.4804,37.26664 21.0275,8.59999 43.9666,12.89999 68.8173,12.89999 z"
       id="text5-0-5-7"
       style="font-weight:500;font-size:768px;font-family:Outfit;-inkscape-font-specification:'Outfit Medium';letter-spacing:46.08px;display:inline;fill:#0f1118;stroke-width:0.934742"
       inkscape:label="Wordmark"
       aria-label="QUATRO"
       sodipodi:nodetypes="ssccscccscccscccscccccsccscccsccscccssscsccsccsccsccssssccccccccccccccccccccccccccscsssccsccscsscccccccccccssccscccscccscccssccscccsccscccs" />
  </g>
  <g
     id="g4"
     inkscape:label="Main"
     style="display:inline"
     transform="matrix(0.93339431,0,0,0.93315969,137.77288,-34.649338)"
     sodipodi:insensitive="true">
    <rect
       style="fill:#04cb72;fill-opacity:1;stroke-width:4.25157"
       id="rect1"
       width="3856.8909"
       height="1105.92"
       x="-147.60416"
       y="37.131199"
       inkscape:label="Background" />
    <path
       d="m 401.13184,866.43157 c -38.4,0 -74.24,-7.16799 -107.52,-21.50399 -33.28,-14.33599 -62.464,-34.04798 -87.552,-59.13596 -25.088,-25.59999 -44.8,-55.03997 -59.136,-88.31995 -13.824,-33.79198 -20.736,-69.88796 -20.736,-108.28794 0,-38.39997 6.912,-74.23995 20.736,-107.51993 14.336,-33.27998 33.792,-62.46396 58.368,-87.55194 25.088,-25.59999 54.016,-45.31198 86.784,-59.13597 33.28,-14.33599 69.12,-21.50399 107.52,-21.50399 38.4,0 73.984,7.168 106.752,21.50399 33.28,13.82399 62.464,33.53598 87.552,59.13597 25.088,25.08798 44.544,54.52796 58.368,88.31993 14.336,33.27999 21.504,69.11996 21.504,107.51994 0,38.39998 -7.168,74.49596 -21.504,108.28794 -13.824,33.27998 -33.28,62.46396 -58.368,87.55195 -24.576,25.08798 -53.504,44.79997 -86.784,59.13596 -32.768,14.336 -68.096,21.50399 -105.984,21.50399 z m 245.76,29.18399 -241.92,-241.91986 56.832,-56.83197 241.92,241.91986 z m -247.296,-113.66394 c 36.352,0 68.096,-8.19199 95.232,-24.57598 27.648,-16.38399 49.152,-38.91198 64.512,-67.58397 15.872,-29.18398 23.808,-62.71996 23.808,-100.60794 0,-28.15998 -4.608,-53.75997 -13.824,-76.79995 -8.704,-23.55199 -21.248,-43.77598 -37.632,-60.67196 -16.384,-17.40799 -35.84,-30.71998 -58.368,-39.93597 -22.016,-9.216 -46.592,-13.824 -73.728,-13.824 -35.84,0 -67.584,8.192 -95.232,24.57599 -27.136,15.87199 -48.64,38.14397 -64.512,66.81595 -15.36,28.67198 -23.04,61.95196 -23.04,99.83994 0,28.15999 4.352,54.27197 13.056,78.33596 9.216,23.55198 21.76,43.77597 37.632,60.67196 16.384,16.89599 35.84,30.20798 58.368,39.93598 22.528,9.21599 47.104,13.82399 73.728,13.82399 z m 628.99166,84.47995 c -40.44802,0 -76.80001,-9.21599 -109.05601,-27.64798 -32.256,-18.43199 -57.856,-43.51998 -76.8,-75.26396 -18.432,-32.25598 -27.648,-68.60796 -27.648,-109.05593 V 321.1519 h 88.32 v 332.5438 c 0,26.11198 5.376,48.89597 16.128,68.35196 11.264,18.94399 26.368,33.79198 45.312,44.54397 18.94398,10.23999 40.19201,15.35999 63.74401,15.35999 24.064,0 45.312,-5.12 63.744,-15.35999 18.432,-10.75199 33.024,-25.59998 43.776,-44.54397 10.752,-19.45599 16.128,-41.98398 16.128,-67.58396 V 321.1519 h 88.32 v 334.07979 c 0,40.44798 -9.216,76.54396 -27.648,108.28794 -18.432,31.74398 -43.52,56.83197 -75.264,75.26396 -31.744,18.43199 -68.096,27.64798 -109.056,27.64798 z m 310.2709,-7.67999 221.184,-537.59968 h 61.44 l 219.648,537.59968 h -95.232 l -172.032,-435.45574 h 32.256 l -173.568,435.45574 z m 109.056,-103.67994 v -76.79996 h 284.928 v 76.79996 z m 569.8548,103.67994 V 336.51189 h 88.32 V 858.75158 Z M 1842.6652,401.79185 V 321.1519 h 438.528 v 80.63995 z m 622.0797,228.86386 v -72.95996 h 135.936 c 27.136,0 48.128,-6.91199 62.976,-20.73599 15.36,-14.33599 23.04,-34.04798 23.04,-59.13596 0,-22.52798 -7.424,-41.47197 -22.272,-56.83196 -14.848,-15.35999 -35.84,-23.03999 -62.976,-23.03999 h -136.704 V 321.1519 h 140.544 c 33.792,0 63.488,6.91199 89.088,20.73599 25.6,13.31199 45.312,31.74398 59.136,55.29596 14.336,23.03999 21.504,49.40798 21.504,79.10395 0,31.23198 -7.168,58.36796 -21.504,81.40795 -13.824,23.03999 -33.536,40.95998 -59.136,53.75997 -25.6,12.79999 -55.296,19.19999 -89.088,19.19999 z m -60.672,228.09587 V 321.1519 h 88.32 v 537.59968 z m 294.912,0 -188.16,-233.47187 82.176,-29.95198 217.344,263.42385 z m 463.8696,7.67999 c -38.4,0 -74.24,-7.16799 -107.52,-21.50399 -33.28,-14.33599 -62.464,-34.04798 -87.552,-59.13596 -25.088,-25.59999 -44.8,-55.03997 -59.136,-88.31995 -13.824,-33.79198 -20.736,-69.88796 -20.736,-108.28794 0,-38.39997 6.912,-74.23995 20.736,-107.51993 14.336,-33.27998 33.792,-62.46396 58.368,-87.55194 25.088,-25.59999 54.016,-45.31198 86.784,-59.13597 33.28,-14.33599 69.12,-21.50399 107.52,-21.50399 38.4,0 73.984,7.168 106.752,21.50399 33.28,13.82399 62.464,33.53598 87.552,59.13597 25.088,25.08798 44.544,54.52796 58.368,88.31993 14.336,33.27999 21.504,69.11996 21.504,107.51994 0,38.39998 -7.168,74.49596 -21.504,108.28794 -13.824,33.27998 -33.28,62.46396 -58.368,87.55195 -24.576,25.08798 -53.504,44.79997 -86.784,59.13596 -32.768,14.336 -68.096,21.50399 -105.984,21.50399 z m -1.536,-84.47995 c 36.352,0 68.096,-8.19199 95.232,-24.57598 27.648,-16.38399 49.152,-38.91198 64.512,-67.58397 15.872,-29.18398 23.808,-62.71996 23.808,-100.60794 0,-28.15998 -4.608,-53.75997 -13.824,-76.79995 -8.704,-23.55199 -21.248,-43.77598 -37.632,-60.67196 -16.384,-17.40799 -35.84,-30.71998 -58.368,-39.93597 -22.016,-9.216 -46.592,-13.824 -73.728,-13.824 -35.84,0 -67.584,8.192 -95.232,24.57599 -27.136,15.87199 -48.64,38.14397 -64.512,66.81595 -15.36,28.67198 -23.04,61.95196 -23.04,99.83994 0,28.15999 4.352,54.27197 13.056,78.33596 9.216,23.55198 21.76,43.77597 37.632,60.67196 16.384,16.89599 35.84,30.20798 58.368,39.93598 22.528,9.21599 47.104,13.82399 73.728,13.82399 z"
       id="text5-0-5"
       style="font-weight:500;font-size:768px;font-family:Outfit;-inkscape-font-specification:'Outfit Medium';letter-spacing:46.08px;display:inline;fill:#0f1118;stroke-width:1.00157"
       inkscape:label="Wordmark"
       aria-label="QUATRO"
       sodipodi:nodetypes="ssccscccscccscccscccccsccscccsccscccssscsccsccsccsccssssccccccccccccccccccccccccccscsssccsccscsscccccccccccssccscccscccscccssccscccsccscccs" />
  </g>
  <metadata
     id="metadata1">
    <rdf:RDF>
      <cc:Work
         rdf:about="">
        <dc:creator>
          <cc:Agent>
            <dc:title>The Quatro Contributors</dc:title>
          </cc:Agent>
        </dc:creator>
      </cc:Work>
    </rdf:RDF>
  </metadata>
</svg>
